HIERARCHY
ROOT Hips
{
	OFFSET -3.958830 18.904000 13.208200
	CHANNELS 6 Xposition Yposition Zposition Zrotation Yrotation Xrotation 
	JOINT LHipJoint
	{
		OFFSET 0.000000 0.000000 0.000000
		CHANNELS 3 Zrotation Yrotation Xrotation
		JOINT LeftUpLeg
		{
			OFFSET 1.800000 -1.400000 0.085000
			CHANNELS 3 Zrotation Yrotation Xrotation
			JOINT LeftLeg
			{
				OFFSET 2.215000 -6.000000 0.000000
				CHANNELS 3 Zrotation Yrotation Xrotation
				JOINT LeftFoot
				{
					OFFSET 2.500000 -6.900000 0.000000
					CHANNELS 3 Zrotation Yrotation Xrotation
					JOINT LeftToeBase
					{
						OFFSET 0.200000 -0.500000 1.950000
						CHANNELS 3 Zrotation Yrotation Xrotation
						End Site
						{
							OFFSET 0.000000 0.000000 0.000000
						}
					}
				}
			}
		}
	}
	JOINT RHipJoint
	{
		OFFSET 0.000000 0.000000 0.000000
		CHANNELS 3 Zrotation Yrotation Xrotation
		JOINT RightUpLeg
		{
			OFFSET -1.800000 -1.400000 0.085000
			CHANNELS 3 Zrotation Yrotation Xrotation
			JOINT RightLeg
			{
				OFFSET -2.215000 -6.000000 0.000000
				CHANNELS 3 Zrotation Yrotation Xrotation
				JOINT RightFoot
				{
					OFFSET -2.500000 -6.900000 0.000000
					CHANNELS 3 Zrotation Yrotation Xrotation
					JOINT RightToeBase
					{
						OFFSET -0.200000 -0.500000 1.950000
						CHANNELS 3 Zrotation Yrotation Xrotation
						End Site
						{
							OFFSET 0.000000 0.000000 0.000000
						}
					}
				}
			}
		}
	}
	JOINT LowerBack
	{
		OFFSET 0.000000 0.000000 0.000000
		CHANNELS 3 Zrotation Yrotation Xrotation
		JOINT Spine
		{
			OFFSET -0.087000 1.940000 -0.288900
			CHANNELS 3 Zrotation Yrotation Xrotation
			JOINT Spine1
			{
				OFFSET 0.000000 1.950000 0.060000
				CHANNELS 3 Zrotation Yrotation Xrotation
				JOINT Neck
				{
					OFFSET 0.000000 0.000000 0.000000
					CHANNELS 3 Zrotation Yrotation Xrotation
					JOINT Neck1
					{
						OFFSET 0.000000 1.600000 0.340000
						CHANNELS 3 Zrotation Yrotation Xrotation
						JOINT Head
						{
							OFFSET 0.000000 1.667000 -0.240000
							CHANNELS 3 Zrotation Yrotation Xrotation
							End Site
							{
								OFFSET 0.000000 0.000000 0.000000
							}
						}
					}
				}
				JOINT LeftShoulder
				{
					OFFSET 0.000000 0.000000 0.000000
					CHANNELS 3 Zrotation Yrotation Xrotation
					JOINT LeftArm
					{
						OFFSET 2.700000 1.550000 -0.730000
						CHANNELS 3 Zrotation Yrotation Xrotation
						JOINT LeftForeArm
						{
							OFFSET 5.450000 0.000000 0.000000
							CHANNELS 3 Zrotation Yrotation Xrotation
							JOINT LeftHand
							{
								OFFSET 3.450000 0.000000 0.000000
								CHANNELS 3 Zrotation Yrotation Xrotation
								JOINT LeftHandIndex1
								{
									OFFSET 0.750000 0.000000 0.000000
									CHANNELS 3 Zrotation Yrotation Xrotation
									End Site
									{
										OFFSET 0.000000 0.000000 0.000000
									}
								}
							}
						}
					}
				}
				JOINT RightShoulder
				{
					OFFSET 0.000000 0.000000 0.000000
					CHANNELS 3 Zrotation Yrotation Xrotation
					JOINT RightArm
					{
						OFFSET -2.700000 1.550000 -0.730000
						CHANNELS 3 Zrotation Yrotation Xrotation
						JOINT RightForeArm
						{
							OFFSET -5.450000 0.000000 0.000000
							CHANNELS 3 Zrotation Yrotation Xrotation
							JOINT RightHand
							{
								OFFSET -3.450000 0.000000 0.000000
								CHANNELS 3 Zrotation Yrotation Xrotation
								JOINT RightHandIndex1
								{
									OFFSET -0.750000 0.000000 0.000000
									CHANNELS 3 Zrotation Yrotation Xrotation
									End Site
									{
										OFFSET 0.000000 0.000000 0.000000
									}
								}
							}
						}
					}
				}
			}
		}
	}
}
MOTION
Frames: 4
Frame Time: 0.016667
-1.524850 17.986150 -1.802220 -4.600379 17.090737 -3.580452 -15.177070 13.477723 2.058509 8.443828 -1.399951 -12.764108 1.073380 5.314278 22.472893 -0.497143 4.685249 3.286641 0.477760 -0.071700 0.468780 18.230737 -10.571233 3.713693 -4.192498 5.073586 -31.592288 7.097333 -2.813706 6.661265 0.272418 -2.015258 3.982479 0.067900 0.523270 0.185150 -3.901937 -1.207347 -7.423390 7.775188 -0.873361 8.881867 -1.068470 -0.689036 12.933494 1.802619 0.630037 -10.650846 -1.267041 -2.247667 40.087056 -5.283750 -1.765550 4.857710 -2.128197 -13.909841 5.251032 -24.161936 -17.856070 -2.335934 48.329242 -52.701628 -23.518041 -3.586977 2.570473 0.296230 0.420580 -0.383300 0.302890 -0.791114 14.189702 5.459532 26.234131 21.017555 -4.229276 -23.743362 58.420737 -12.117916 1.455147 -1.522197 -0.287340 0.233160 -0.158120 -0.247260 
-1.550470 17.948500 -1.811950 -4.387557 16.804378 -3.383242 -15.196590 13.470971 2.060771 8.427568 -1.354025 -12.602779 0.850211 5.349697 22.038065 -0.526866 4.646072 3.295516 0.515220 -0.025270 0.508880 18.217732 -10.529501 3.738756 -4.410718 5.228916 -32.267803 7.275481 -2.861919 7.230627 0.260133 -1.990858 3.974232 0.104620 0.500330 0.164170 -3.840052 -1.247358 -7.417773 7.142808 -0.688019 9.131787 -0.532043 -0.560201 13.108871 1.704963 0.593955 -10.469678 -1.216612 -1.787202 39.873838 -4.775360 -1.352220 3.401320 -1.314134 -13.194745 5.140072 -24.748983 -17.841503 -2.306027 49.192961 -53.591651 -24.465285 -3.551312 2.537916 0.318160 0.397210 -0.365710 0.301460 -1.333148 13.623030 5.140096 26.640413 21.802994 -3.872484 -23.854835 57.208771 -11.889675 1.460449 -1.515593 -0.299100 0.256790 -0.177960 -0.261540 
-1.601310 17.843140 -1.820430 -3.984220 17.526239 -2.579313 -15.209423 13.404844 2.066793 8.540949 -1.389390 -12.855537 0.236021 5.392633 20.974076 -0.525043 4.544263 3.355534 0.517200 0.024770 0.446380 18.223267 -10.456092 3.780063 -5.650599 5.399924 -34.109196 7.737505 -3.094635 8.912125 0.281952 -2.093288 3.941360 0.150600 0.558180 0.140380 -3.830925 -1.248460 -7.387657 6.497852 -0.658909 8.977479 -0.142440 -0.626585 12.867038 1.226041 0.284301 -9.794922 -1.627770 -1.609613 38.341075 -3.779220 -1.957580 3.903310 -0.856948 -11.598307 4.693463 -24.625245 -17.683251 -1.966215 51.582148 -56.783811 -27.026833 -3.532479 2.494060 0.249960 0.431240 -0.407090 0.343480 -0.823855 12.340465 4.343391 26.408342 22.489846 -3.359183 -25.804203 57.845490 -12.903246 1.446488 -1.536122 -0.303890 0.284070 -0.191350 -0.215260 
-1.670830 17.747130 -1.816740 -3.501660 19.617439 -0.723423 -15.260024 13.306486 2.129823 8.599056 -1.782773 -14.634256 -0.569618 5.431831 20.088411 -0.602596 4.503302 3.383136 0.440740 -0.083560 0.336610 18.208805 -10.252398 3.859417 -7.689175 5.603100 -36.817690 8.941264 -3.753620 11.712155 0.329741 -2.382607 3.841885 0.130580 0.659310 0.134570 -3.739485 -1.455694 -7.369304 5.258909 -0.975650 7.689354 1.151152 -1.176594 12.841489 0.633395 -0.144348 -9.798745 -2.347882 -1.023020 37.340382 -2.771590 -2.559840 6.345370 0.936169 -9.500644 5.152305 -29.416508 -17.535702 -1.000651 59.659314 -59.486054 -33.752778 -3.550391 2.345907 0.216530 0.498560 -0.519800 0.344850 -1.378136 10.477707 3.779992 28.482149 22.606294 -3.218204 -29.966498 60.764983 -15.794783 1.341547 -1.507901 -0.361040 0.286920 -0.116260 -0.214660 
